# xmcd
#
# Track frame offsets: 
#        150
#        17125
#        45969
#        60528
#        83854
#        105868
#        124936
#        154773
#        176313
#        199759
#
# Disc length: 2935 seconds
#
# Revision: 0
# Processed by: cddbd v1.5.2PL0 Copyright (c) Steve Scherf et al.
# Submitted via: ExactAudioCopy v1.2
#
DISCID=700b750a
DTITLE=Walter Wolfman Washington - My Future Is My Past
DYEAR=2018
DGENRE=Blues
TTITLE0=Lost Mind
TTITLE1=Even Now
TTITLE2=What A Diff'rence A Day Makes
TTITLE3=Save Your Love For Me
TTITLE4=I Don't Want To Be A Lone Ranger
TTITLE5=Steal Away
TTITLE6=She's Everything To Me
TTITLE7=I Cried My Last Tear
TTITLE8=I Just Dropped By To Say Hello
TTITLE9=Are You The Lady
EXTD=
EXTT0=
EXTT1=
EXTT2=
EXTT3=
EXTT4=
EXTT5=
EXTT6=
EXTT7=
EXTT8=
EXTT9=
PLAYORDER=
